<svg id="Arrow" xmlns="http://www.w3.org/2000/svg" width="379" height="697" viewBox="0 0 379 697">
  <defs>
    <style>
      .cls-1 {
        fill: #fff;
        fill-rule: evenodd;
      }
    </style>
  </defs>
  <g id="Ligne">
    <path class="cls-1" d="M189.774,0.42a39.226,39.226,0,1,1-39.225,39.226A39.226,39.226,0,0,1,189.774.42Z"/>
    <path id="Ellipse_1_copy" data-name="Ellipse 1 copy" class="cls-1" d="M189.774,112.42a39.226,39.226,0,1,1-39.225,39.225A39.226,39.226,0,0,1,189.774,112.42Z"/>
    <path id="Ellipse_1_copy_2" data-name="Ellipse 1 copy 2" class="cls-1" d="M189.774,224.42a39.226,39.226,0,1,1-39.225,39.225A39.226,39.226,0,0,1,189.774,224.42Z"/>
    <path id="Ellipse_1_copy_2-2" data-name="Ellipse 1 copy 2" class="cls-1" d="M189.774,336.42a39.226,39.226,0,1,1-39.225,39.225A39.226,39.226,0,0,1,189.774,336.42Z"/>
    <path id="Ellipse_1_copy_3" data-name="Ellipse 1 copy 3" class="cls-1" d="M189.774,448.42a39.226,39.226,0,1,1-39.225,39.225A39.226,39.226,0,0,1,189.774,448.42Z"/>
  </g>
  <g id="Triangle">
    <g id="Layer_1" data-name="Layer 1">
      <path id="Ellipse_1_copy_4" data-name="Ellipse 1 copy 4" class="cls-1" d="M39.774,448.42A39.226,39.226,0,1,1,.549,487.645,39.226,39.226,0,0,1,39.774,448.42Z"/>
      <path id="Ellipse_1_copy_5" data-name="Ellipse 1 copy 5" class="cls-1" d="M339.774,448.42a39.226,39.226,0,1,1-39.226,39.225A39.226,39.226,0,0,1,339.774,448.42Z"/>
    </g>
    <g id="Layer_2" data-name="Layer 2">
      <path id="Ellipse_1_copy_6" data-name="Ellipse 1 copy 6" class="cls-1" d="M259.774,538.42a39.226,39.226,0,1,1-39.226,39.225A39.226,39.226,0,0,1,259.774,538.42Z"/>
      <path id="Ellipse_1_copy_7" data-name="Ellipse 1 copy 7" class="cls-1" d="M119.774,538.42a39.226,39.226,0,1,1-39.225,39.225A39.226,39.226,0,0,1,119.774,538.42Z"/>
    </g>
    <path id="Ellipse_1_copy_8" data-name="Ellipse 1 copy 8" class="cls-1" d="M189.774,618.42a39.226,39.226,0,1,1-39.225,39.225A39.226,39.226,0,0,1,189.774,618.42Z"/>
  </g>
</svg>
