<svg class="img-fluid" id="outputsvg" xmlns="http://www.w3.org/2000/svg" width="612" height="612" viewBox="0 0 6120 6120" style="transform: matrix(0.781469, 0, 0, 0.781469, 0, 0); transform-origin: 50% 50%; cursor: move; max-height: 368.98px; transition: transform 200ms ease-in-out 0s;"><g id="lrIdWO6Wxwv5HluT9YNS1s" fill="rgb(255,255,255)" style="transform: none;"><g><path id="p5EvCe4g6" d="M1158 5732 c-40 -3 -88 -44 -100 -84 -9 -35 -9 -570 2 -683 20 -224 104 -383 288 -545 86 -76 271 -208 353 -251 57 -31 57 -31 61 -127 5 -101 18 -140 60 -180 46 -42 89 -52 233 -52 149 0 173 7 231 62 29 27 36 29 78 23 46 -7 46 -7 46 -214 0 -207 0 -207 -31 -237 -126 -117 -238 -343 -279 -559 -11 -59 -13 -61 -53 -74 -55 -17 -119 -66 -152 -116 -67 -104 -90 -331 -44 -451 8 -22 6 -31 -10 -48 -40 -43 -51 -89 -51 -221 0 -114 2 -130 25 -174 13 -27 30 -51 38 -54 11 -4 15 -37 20 -134 10 -227 71 -415 195 -603 76 -115 224 -262 341 -338 52 -34 100 -62 108 -62 7 0 13 -3 14 -7 0 -5 1 -27 3 -50 5 -81 49 -105 260 -143 253 -46 672 -8 758 69 23 20 31 38 35 74 6 47 7 49 73 87 350 205 567 564 587 973 5 105 9 130 23 140 10 7 27 30 39 52 18 35 21 56 21 168 0 134 -10 180 -50 222 -18 19 -18 24 -5 69 31 102 13 312 -34 404 -32 63 -146 152 -194 152 -10 0 -18 21 -26 63 -19 97 -50 195 -87 277 -30 65 -88 165 -104 180 -3 3 -21 25 -40 50 -19 25 -45 53 -57 63 -23 18 -23 22 -23 227 0 208 0 208 50 215 47 6 52 5 71 -19 43 -54 85 -66 234 -66 148 0 188 10 238 58 36 34 59 114 56 197 -1 36 0 67 2 69 2 2 52 33 111 69 229 140 410 301 491 438 49 84 85 199 97 313 13 121 13 651 0 697 -6 20 -20 45 -31 55 -21 18 -72 19 -1928 24 -1048 3 -1923 4 -1943 2z m382 -567 c0 -414 2 -428 53 -484 33 -35 90 -69 131 -76 36 -7 36 -7 36 -132 0 -96 -3 -123 -12 -117 -191 111 -393 295 -446 407 -55 114 -62 174 -62 498 0 289 0 289 150 289 150 0 150 0 150 -385z m2858 22 c1 -219 -2 -365 -8 -376 -5 -11 -26 -21 -52 -25 -57 -9 -104 -40 -136 -89 -27 -40 -27 -40 -32 -371 -5 -331 -5 -331 -80 -334 -133 -5 -120 -41 -120 327 0 313 0 318 -23 362 -13 24 -43 58 -66 74 -43 30 -43 30 -819 30 -765 0 -778 0 -812 -20 -19 -12 -48 -40 -65 -64 -30 -43 -30 -43 -33 -377 -3 -334 -3 -334 -71 -334 -143 0 -131 -31 -131 329 0 285 -2 320 -19 356 -29 65 -104 115 -173 115 -10 0 -22 9 -28 19 -11 22 -15 723 -3 734 3 4 605 6 1337 5 1331 -3 1331 -3 1334 -361z m482 74 c0 -328 -8 -387 -65 -500 -39 -78 -112 -162 -213 -245 -92 -74 -234 -168 -241 -159 -12 16 0 243 12 243 66 0 157 66 188 135 17 36 19 74 19 428 0 387 0 387 150 387 150 0 150 0 150 -289z m-1098 -683 c2 -13 2 -129 0 -259 -3 -166 -8 -236 -16 -237 -6 -1 -49 -4 -96 -8 -79 -5 -90 -4 -158 25 -40 16 -121 43 -180 58 -96 25 -124 27 -272 28 -147 0 -177 -3 -273 -28 -59 -14 -139 -40 -178 -57 -73 -31 -127 -37 -223 -24 -46 7 -46 7 -46 265 0 259 0 259 719 259 719 0 719 0 723 -22z m-527 -594 c39 -7 106 -28 150 -45 44 -17 88 -33 98 -36 15 -5 17 -21 17 -144 0 -77 -3 -139 -6 -139 -4 0 -45 16 -93 35 -223 89 -532 85 -745 -9 -32 -14 -62 -26 -67 -26 -5 0 -9 63 -9 139 0 139 0 139 80 170 207 79 380 95 575 55z m3 -469 c115 -27 248 -97 327 -172 132 -123 229 -326 257 -535 16 -116 39 -146 118 -159 96 -15 126 -53 143 -179 12 -90 3 -164 -24 -191 -19 -19 -45 -19 -1019 -19 -974 0 -1000 0 -1019 19 -11 11 -23 41 -27 68 -8 54 8 195 27 236 14 32 82 67 128 67 48 0 101 57 101 108 1 53 34 195 65 277 122 326 409 516 755 500 58 -3 133 -12 168 -20z m885 -1455 c3 -11 3 -56 0 -100 -6 -80 -6 -80 -1085 -78 -1078 3 -1078 3 -1083 92 -2 50 -2 94 1 98 3 4 490 8 1083 8 1070 0 1079 0 1084 -20z m-78 -442 c-30 -329 -163 -577 -408 -760 -75 -55 -107 -70 -107 -48 0 14 -79 551 -86 583 -4 17 -18 36 -37 48 -56 33 -105 22 -133 -32 -14 -29 -12 -52 42 -410 31 -209 54 -382 52 -385 -3 -2 -41 -12 -84 -21 -114 -24 -371 -23 -484 1 -47 9 -87 19 -89 21 -3 4 30 235 89 627 19 126 20 140 5 167 -28 55 -94 68 -140 29 -28 -25 -28 -29 -91 -450 -15 -104 -32 -188 -36 -188 -18 0 -115 68 -172 121 -127 115 -237 288 -286 444 -22 72 -50 235 -50 293 0 32 0 32 1011 32 1011 0 1011 0 1004 -72z"></path></g></g></svg>